<mxfile host="app.diagrams.net" modified="2024-08-29T07:53:13.891Z" agent="Mozilla/5.0 (Windows NT 10.0; Win64; x64) AppleWebKit/537.36 (KHTML, like Gecko) Chrome/128.0.0.0 Safari/537.36 Edg/128.0.0.0" etag="646eGmWAzBs1sF3Bhmzo" version="24.6.4" type="github">
  <diagram name="第 1 页" id="yexgvoCh9Lw8Kh7cAQX-">
    <mxGraphModel dx="1386" dy="749" grid="0" gridSize="10" guides="1" tooltips="1" connect="1" arrows="1" fold="1" page="1" pageScale="1" pageWidth="827" pageHeight="1169" math="0" shadow="0">
      <root>
        <mxCell id="0" />
        <mxCell id="1" parent="0" />
        <mxCell id="F8msJ9DfgunD464UttAr-1" value="" style="shape=cylinder3;whiteSpace=wrap;html=1;boundedLbl=1;backgroundOutline=1;size=15;" vertex="1" parent="1">
          <mxGeometry x="140" y="320" width="87" height="115" as="geometry" />
        </mxCell>
        <mxCell id="F8msJ9DfgunD464UttAr-3" value="" style="shape=cylinder3;whiteSpace=wrap;html=1;boundedLbl=1;backgroundOutline=1;size=15;" vertex="1" parent="1">
          <mxGeometry x="299" y="320" width="87" height="115" as="geometry" />
        </mxCell>
        <mxCell id="F8msJ9DfgunD464UttAr-4" value="" style="shape=cylinder3;whiteSpace=wrap;html=1;boundedLbl=1;backgroundOutline=1;size=15;" vertex="1" parent="1">
          <mxGeometry x="459" y="320" width="87" height="115" as="geometry" />
        </mxCell>
        <mxCell id="F8msJ9DfgunD464UttAr-5" value="" style="shape=cylinder3;whiteSpace=wrap;html=1;boundedLbl=1;backgroundOutline=1;size=15;" vertex="1" parent="1">
          <mxGeometry x="618" y="320" width="87" height="115" as="geometry" />
        </mxCell>
        <mxCell id="F8msJ9DfgunD464UttAr-6" value="" style="childLayout=tableLayout;recursiveResize=0;shadow=0;fillColor=none;" vertex="1" parent="1">
          <mxGeometry x="124" y="97" width="600" height="47" as="geometry" />
        </mxCell>
        <mxCell id="F8msJ9DfgunD464UttAr-7" value="" style="shape=tableRow;horizontal=0;startSize=0;swimlaneHead=0;swimlaneBody=0;top=0;left=0;bottom=0;right=0;dropTarget=0;collapsible=0;recursiveResize=0;expand=0;fontStyle=0;fillColor=none;strokeColor=inherit;" vertex="1" parent="F8msJ9DfgunD464UttAr-6">
          <mxGeometry width="600" height="47" as="geometry" />
        </mxCell>
        <mxCell id="F8msJ9DfgunD464UttAr-25" value="5" style="connectable=0;recursiveResize=0;strokeColor=inherit;fillColor=none;align=center;whiteSpace=wrap;html=1;" vertex="1" parent="F8msJ9DfgunD464UttAr-7">
          <mxGeometry width="60" height="47" as="geometry">
            <mxRectangle width="60" height="47" as="alternateBounds" />
          </mxGeometry>
        </mxCell>
        <mxCell id="F8msJ9DfgunD464UttAr-24" value="0" style="connectable=0;recursiveResize=0;strokeColor=inherit;fillColor=none;align=center;whiteSpace=wrap;html=1;" vertex="1" parent="F8msJ9DfgunD464UttAr-7">
          <mxGeometry x="60" width="60" height="47" as="geometry">
            <mxRectangle width="60" height="47" as="alternateBounds" />
          </mxGeometry>
        </mxCell>
        <mxCell id="F8msJ9DfgunD464UttAr-23" value="3" style="connectable=0;recursiveResize=0;strokeColor=inherit;fillColor=none;align=center;whiteSpace=wrap;html=1;" vertex="1" parent="F8msJ9DfgunD464UttAr-7">
          <mxGeometry x="120" width="60" height="47" as="geometry">
            <mxRectangle width="60" height="47" as="alternateBounds" />
          </mxGeometry>
        </mxCell>
        <mxCell id="F8msJ9DfgunD464UttAr-22" value="20" style="connectable=0;recursiveResize=0;strokeColor=inherit;fillColor=none;align=center;whiteSpace=wrap;html=1;" vertex="1" parent="F8msJ9DfgunD464UttAr-7">
          <mxGeometry x="180" width="60" height="47" as="geometry">
            <mxRectangle width="60" height="47" as="alternateBounds" />
          </mxGeometry>
        </mxCell>
        <mxCell id="F8msJ9DfgunD464UttAr-21" value="6" style="connectable=0;recursiveResize=0;strokeColor=inherit;fillColor=none;align=center;whiteSpace=wrap;html=1;" vertex="1" parent="F8msJ9DfgunD464UttAr-7">
          <mxGeometry x="240" width="60" height="47" as="geometry">
            <mxRectangle width="60" height="47" as="alternateBounds" />
          </mxGeometry>
        </mxCell>
        <mxCell id="F8msJ9DfgunD464UttAr-20" value="2" style="connectable=0;recursiveResize=0;strokeColor=inherit;fillColor=none;align=center;whiteSpace=wrap;html=1;" vertex="1" parent="F8msJ9DfgunD464UttAr-7">
          <mxGeometry x="300" width="60" height="47" as="geometry">
            <mxRectangle width="60" height="47" as="alternateBounds" />
          </mxGeometry>
        </mxCell>
        <mxCell id="F8msJ9DfgunD464UttAr-19" value="4" style="connectable=0;recursiveResize=0;strokeColor=inherit;fillColor=none;align=center;whiteSpace=wrap;html=1;" vertex="1" parent="F8msJ9DfgunD464UttAr-7">
          <mxGeometry x="360" width="60" height="47" as="geometry">
            <mxRectangle width="60" height="47" as="alternateBounds" />
          </mxGeometry>
        </mxCell>
        <mxCell id="F8msJ9DfgunD464UttAr-8" value="4" style="connectable=0;recursiveResize=0;strokeColor=inherit;fillColor=none;align=center;whiteSpace=wrap;html=1;" vertex="1" parent="F8msJ9DfgunD464UttAr-7">
          <mxGeometry x="420" width="60" height="47" as="geometry">
            <mxRectangle width="60" height="47" as="alternateBounds" />
          </mxGeometry>
        </mxCell>
        <mxCell id="F8msJ9DfgunD464UttAr-9" value="7" style="connectable=0;recursiveResize=0;strokeColor=inherit;fillColor=none;align=center;whiteSpace=wrap;html=1;" vertex="1" parent="F8msJ9DfgunD464UttAr-7">
          <mxGeometry x="480" width="60" height="47" as="geometry">
            <mxRectangle width="60" height="47" as="alternateBounds" />
          </mxGeometry>
        </mxCell>
        <mxCell id="F8msJ9DfgunD464UttAr-10" value="8" style="connectable=0;recursiveResize=0;strokeColor=inherit;fillColor=none;align=center;whiteSpace=wrap;html=1;" vertex="1" parent="F8msJ9DfgunD464UttAr-7">
          <mxGeometry x="540" width="60" height="47" as="geometry">
            <mxRectangle width="60" height="47" as="alternateBounds" />
          </mxGeometry>
        </mxCell>
        <mxCell id="F8msJ9DfgunD464UttAr-27" value="[0,5)&lt;br&gt;(0~1*5)" style="text;strokeColor=none;fillColor=none;html=1;fontSize=24;fontStyle=1;verticalAlign=middle;align=center;" vertex="1" parent="1">
          <mxGeometry x="131.75" y="444" width="103.5" height="49" as="geometry" />
        </mxCell>
        <mxCell id="F8msJ9DfgunD464UttAr-29" value="[3,6)&lt;br&gt;(1*5~2*3)" style="text;strokeColor=none;fillColor=none;html=1;fontSize=24;fontStyle=1;verticalAlign=middle;align=center;" vertex="1" parent="1">
          <mxGeometry x="290.75" y="444" width="103.5" height="49" as="geometry" />
        </mxCell>
        <mxCell id="F8msJ9DfgunD464UttAr-30" value="[6,9)&lt;br&gt;(2*3~3*3)" style="text;strokeColor=none;fillColor=none;html=1;fontSize=24;fontStyle=1;verticalAlign=middle;align=center;" vertex="1" parent="1">
          <mxGeometry x="450.75" y="444" width="103.5" height="49" as="geometry" />
        </mxCell>
        <mxCell id="F8msJ9DfgunD464UttAr-31" value="[0,3)&lt;br&gt;(3*3~4*3)" style="text;strokeColor=none;fillColor=none;html=1;fontSize=24;fontStyle=1;verticalAlign=middle;align=center;" vertex="1" parent="1">
          <mxGeometry x="609.75" y="444" width="103.5" height="49" as="geometry" />
        </mxCell>
      </root>
    </mxGraphModel>
  </diagram>
</mxfile>
